<svg width="691" height="72" viewBox="0 0 691 72" fill="none" xmlns="http://www.w3.org/2000/svg">
<path d="M0.552002 35.536C0.552002 25.424 3.912 17.008 10.632 10.288C17.416 3.56801 26.056 0.208008 36.552 0.208008C41.352 0.208008 46.024 1.04001 50.568 2.70401C55.112 4.30401 59.016 6.704 62.28 9.90401L54.504 22.576C52.2 20.528 49.48 18.864 46.344 17.584C43.272 16.24 40.264 15.568 37.32 15.568C30.92 15.568 26.088 17.488 22.824 21.328C19.56 25.104 17.928 29.712 17.928 35.152C17.928 40.72 19.592 45.552 22.92 49.648C26.312 53.744 31.112 55.792 37.32 55.792C43.848 55.792 49.928 52.976 55.56 47.344L64.2 59.632C56.776 67.312 47.56 71.152 36.552 71.152C25.672 71.152 16.936 67.824 10.344 61.168C3.816 54.448 0.552002 45.904 0.552002 35.536ZM72.7313 70V1.36001H89.5312V70H72.7313ZM103.95 70V1.36001H120.942L139.95 33.424C140.718 34.768 141.582 36.432 142.542 38.416C143.502 40.336 144.27 41.936 144.846 43.216L145.71 45.136H145.902C145.39 40.208 145.134 36.304 145.134 33.424V1.36001H161.934V70H145.038L125.934 38.032C125.166 36.688 124.302 35.056 123.342 33.136C122.382 31.152 121.614 29.52 121.038 28.24L120.174 26.32H119.982C120.494 31.248 120.75 35.152 120.75 38.032V70H103.95ZM176.325 70V1.36001H219.333V15.76H193.125V28.24H214.053V42.64H193.125V55.6H220.677V70H176.325ZM228.762 70L234.426 1.36001H252.666L262.65 30.352L266.106 41.68H266.298C267.578 37.072 268.73 33.296 269.754 30.352L279.738 1.36001H297.978L303.546 70H286.746L284.634 39.088C284.506 37.552 284.442 35.824 284.442 33.904C284.442 31.984 284.474 30.448 284.538 29.296L284.634 27.568H284.442C282.906 32.368 281.626 36.208 280.602 39.088L273.402 58.96H259.002L251.802 39.088L247.962 27.568H247.77C248.026 31.792 248.026 35.632 247.77 39.088L245.658 70H228.762ZM307.868 70L331.196 1.36001H348.86L372.188 70H354.908L350.684 55.6H329.276L325.148 70H307.868ZM333.212 42.16H346.748L342.908 28.816L340.124 17.008H339.932C338.908 22 337.98 25.936 337.148 28.816L333.212 42.16ZM396.552 35.536C396.552 25.488 399.944 17.104 406.728 10.384C413.576 3.6 422.184 0.208008 432.552 0.208008C443.24 0.208008 452.04 3.24801 458.952 9.32801L450.888 21.904C448.904 20.112 446.344 18.608 443.208 17.392C440.072 16.176 437.064 15.568 434.184 15.568C427.4 15.568 422.312 17.424 418.92 21.136C415.592 24.784 413.928 29.392 413.928 34.96C413.928 41.296 415.816 46.352 419.592 50.128C423.432 53.904 428.104 55.792 433.608 55.792C438.6 55.792 443.24 54.128 447.528 50.8V45.52H437.832V31.216H462.408V70H448.392V68.08L448.488 65.2H448.296C446.248 66.992 443.56 68.432 440.232 69.52C436.968 70.608 433.64 71.152 430.248 71.152C421.032 71.152 413.096 67.92 406.44 61.456C399.848 54.992 396.552 46.352 396.552 35.536ZM474.45 70V1.36001H491.25V55.6H519.282V70H474.45ZM519.931 70L543.259 1.36001H560.923L584.251 70H566.971L562.747 55.6H541.339L537.211 70H519.931ZM545.275 42.16H558.811L554.971 28.816L552.187 17.008H551.995C550.971 22 550.043 25.936 549.211 28.816L545.275 42.16ZM586.465 61.36L595.297 48.592C597.473 50.512 600.065 52.176 603.073 53.584C606.081 54.992 608.993 55.696 611.809 55.696C614.049 55.696 615.777 55.248 616.993 54.352C618.273 53.456 618.913 52.304 618.913 50.896C618.913 49.424 618.145 48.08 616.609 46.864C615.137 45.584 613.281 44.528 611.041 43.696C608.801 42.864 606.369 41.808 603.745 40.528C601.121 39.184 598.689 37.776 596.449 36.304C594.209 34.832 592.321 32.816 590.785 30.256C589.313 27.632 588.577 24.624 588.577 21.232C588.577 14.96 590.881 9.90401 595.489 6.06401C600.161 2.16001 606.145 0.208008 613.441 0.208008C621.953 0.208008 629.121 2.80001 634.945 7.98401L627.841 21.712C625.857 19.984 623.489 18.544 620.737 17.392C617.985 16.24 615.297 15.664 612.673 15.664C610.241 15.664 608.417 16.112 607.201 17.008C605.985 17.904 605.377 19.088 605.377 20.56C605.377 22.032 606.113 23.376 607.585 24.592C609.121 25.808 611.009 26.832 613.249 27.664C615.489 28.432 617.921 29.456 620.545 30.736C623.169 31.952 625.601 33.296 627.841 34.768C630.081 36.176 631.937 38.192 633.409 40.816C634.945 43.376 635.713 46.352 635.713 49.744C635.713 55.824 633.537 60.912 629.185 65.008C624.897 69.104 618.945 71.152 611.329 71.152C606.721 71.152 602.209 70.32 597.793 68.656C593.441 66.992 589.665 64.56 586.465 61.36ZM641.684 61.36L650.516 48.592C652.692 50.512 655.284 52.176 658.292 53.584C661.3 54.992 664.212 55.696 667.028 55.696C669.268 55.696 670.996 55.248 672.212 54.352C673.492 53.456 674.132 52.304 674.132 50.896C674.132 49.424 673.364 48.08 671.828 46.864C670.356 45.584 668.5 44.528 666.26 43.696C664.02 42.864 661.588 41.808 658.964 40.528C656.34 39.184 653.908 37.776 651.668 36.304C649.428 34.832 647.54 32.816 646.004 30.256C644.532 27.632 643.796 24.624 643.796 21.232C643.796 14.96 646.1 9.90401 650.708 6.06401C655.38 2.16001 661.364 0.208008 668.66 0.208008C677.172 0.208008 684.34 2.80001 690.164 7.98401L683.06 21.712C681.076 19.984 678.708 18.544 675.956 17.392C673.204 16.24 670.516 15.664 667.892 15.664C665.46 15.664 663.636 16.112 662.42 17.008C661.204 17.904 660.596 19.088 660.596 20.56C660.596 22.032 661.332 23.376 662.804 24.592C664.34 25.808 666.228 26.832 668.468 27.664C670.708 28.432 673.14 29.456 675.764 30.736C678.388 31.952 680.82 33.296 683.06 34.768C685.3 36.176 687.156 38.192 688.628 40.816C690.164 43.376 690.932 46.352 690.932 49.744C690.932 55.824 688.756 60.912 684.404 65.008C680.116 69.104 674.164 71.152 666.548 71.152C661.94 71.152 657.428 70.32 653.012 68.656C648.66 66.992 644.884 64.56 641.684 61.36Z" fill="#F6F6F6" fill-opacity="0.05"/>
</svg>
