<svg width="494" height="71" viewBox="0 0 494 71" fill="none" xmlns="http://www.w3.org/2000/svg">
<path d="M0.200195 69.792V1.15201H43.2082V15.552H17.0002V28.032H37.9282V42.432H17.0002V55.392H44.5522V69.792H0.200195ZM50.1525 61.152L58.9845 48.384C61.1605 50.304 63.7525 51.968 66.7605 53.376C69.7685 54.784 72.6805 55.488 75.4965 55.488C77.7365 55.488 79.4645 55.04 80.6805 54.144C81.9605 53.248 82.6005 52.096 82.6005 50.688C82.6005 49.216 81.8325 47.872 80.2965 46.656C78.8245 45.376 76.9685 44.32 74.7285 43.488C72.4885 42.656 70.0565 41.6 67.4325 40.32C64.8085 38.976 62.3765 37.568 60.1365 36.096C57.8965 34.624 56.0085 32.608 54.4725 30.048C53.0005 27.424 52.2645 24.416 52.2645 21.024C52.2645 14.752 54.5685 9.69601 59.1765 5.85601C63.8485 1.95201 69.8325 0 77.1285 0C85.6405 0 92.8085 2.59201 98.6325 7.77601L91.5285 21.504C89.5445 19.776 87.1765 18.336 84.4245 17.184C81.6725 16.032 78.9845 15.456 76.3605 15.456C73.9285 15.456 72.1045 15.904 70.8885 16.8C69.6725 17.696 69.0645 18.88 69.0645 20.352C69.0645 21.824 69.8005 23.168 71.2725 24.384C72.8085 25.6 74.6965 26.624 76.9365 27.456C79.1765 28.224 81.6085 29.248 84.2325 30.528C86.8565 31.744 89.2885 33.088 91.5285 34.56C93.7685 35.968 95.6245 37.984 97.0965 40.608C98.6325 43.168 99.4005 46.144 99.4005 49.536C99.4005 55.616 97.2245 60.704 92.8725 64.8C88.5845 68.896 82.6325 70.944 75.0165 70.944C70.4085 70.944 65.8965 70.112 61.4805 68.448C57.1285 66.784 53.3525 64.352 50.1525 61.152ZM105.371 61.152L114.203 48.384C116.379 50.304 118.971 51.968 121.979 53.376C124.987 54.784 127.899 55.488 130.715 55.488C132.955 55.488 134.683 55.04 135.899 54.144C137.179 53.248 137.819 52.096 137.819 50.688C137.819 49.216 137.051 47.872 135.515 46.656C134.043 45.376 132.187 44.32 129.947 43.488C127.707 42.656 125.275 41.6 122.651 40.32C120.027 38.976 117.595 37.568 115.355 36.096C113.115 34.624 111.227 32.608 109.691 30.048C108.219 27.424 107.483 24.416 107.483 21.024C107.483 14.752 109.787 9.69601 114.395 5.85601C119.067 1.95201 125.051 0 132.347 0C140.859 0 148.027 2.59201 153.851 7.77601L146.747 21.504C144.763 19.776 142.395 18.336 139.643 17.184C136.891 16.032 134.203 15.456 131.579 15.456C129.147 15.456 127.323 15.904 126.107 16.8C124.891 17.696 124.283 18.88 124.283 20.352C124.283 21.824 125.019 23.168 126.491 24.384C128.027 25.6 129.915 26.624 132.155 27.456C134.395 28.224 136.827 29.248 139.451 30.528C142.075 31.744 144.507 33.088 146.747 34.56C148.987 35.968 150.843 37.984 152.315 40.608C153.851 43.168 154.619 46.144 154.619 49.536C154.619 55.616 152.443 60.704 148.091 64.8C143.803 68.896 137.851 70.944 130.235 70.944C125.627 70.944 121.115 70.112 116.699 68.448C112.347 66.784 108.571 64.352 105.371 61.152ZM165.294 69.792V1.15201H208.302V15.552H182.094V28.032H203.022V42.432H182.094V55.392H209.646V69.792H165.294ZM220.419 69.792V1.15201H237.411L256.419 33.216C257.187 34.56 258.051 36.224 259.011 38.208C259.971 40.128 260.739 41.728 261.315 43.008L262.179 44.928H262.371C261.859 40 261.603 36.096 261.603 33.216V1.15201H278.403V69.792H261.507L242.403 37.824C241.635 36.48 240.771 34.848 239.811 32.928C238.851 30.944 238.083 29.312 237.507 28.032L236.643 26.112H236.451C236.963 31.04 237.219 34.944 237.219 37.824V69.792H220.419ZM307.578 69.792V15.552H286.746V1.15201H345.21V15.552H324.378V69.792H307.578ZM353.544 69.792V1.15201H370.344V69.792H353.544ZM377.274 69.792L400.603 1.15201H418.267L441.595 69.792H424.315L420.091 55.392H398.683L394.555 69.792H377.274ZM402.619 41.952H416.155L412.315 28.608L409.531 16.8H409.339C408.315 21.792 407.387 25.728 406.555 28.608L402.619 41.952ZM448.513 69.792V1.15201H465.312V55.392H493.345V69.792H448.513Z" fill="#F6F6F6" fill-opacity="0.05"/>
</svg>
