<svg width="974" height="71" viewBox="0 0 974 71" fill="none" xmlns="http://www.w3.org/2000/svg">
<path d="M0 69.792V1.15201H43.008V15.552H16.8V28.032H37.728V42.432H16.8V55.392H44.352V69.792H0ZM49.9523 61.152L58.7843 48.384C60.9603 50.304 63.5523 51.968 66.5603 53.376C69.5683 54.784 72.4803 55.488 75.2963 55.488C77.5363 55.488 79.2643 55.04 80.4803 54.144C81.7603 53.248 82.4003 52.096 82.4003 50.688C82.4003 49.216 81.6323 47.872 80.0963 46.656C78.6243 45.376 76.7683 44.32 74.5283 43.488C72.2883 42.656 69.8563 41.6 67.2323 40.32C64.6083 38.976 62.1763 37.568 59.9363 36.096C57.6963 34.624 55.8083 32.608 54.2723 30.048C52.8003 27.424 52.0643 24.416 52.0643 21.024C52.0643 14.752 54.3683 9.69601 58.9763 5.85601C63.6483 1.95201 69.6323 0 76.9283 0C85.4403 0 92.6083 2.59201 98.4323 7.77601L91.3283 21.504C89.3443 19.776 86.9763 18.336 84.2243 17.184C81.4723 16.032 78.7843 15.456 76.1603 15.456C73.7283 15.456 71.9043 15.904 70.6883 16.8C69.4723 17.696 68.8643 18.88 68.8643 20.352C68.8643 21.824 69.6003 23.168 71.0723 24.384C72.6083 25.6 74.4963 26.624 76.7363 27.456C78.9763 28.224 81.4083 29.248 84.0323 30.528C86.6563 31.744 89.0883 33.088 91.3283 34.56C93.5683 35.968 95.4243 37.984 96.8963 40.608C98.4323 43.168 99.2003 46.144 99.2003 49.536C99.2003 55.616 97.0243 60.704 92.6723 64.8C88.3843 68.896 82.4323 70.944 74.8163 70.944C70.2083 70.944 65.6963 70.112 61.2803 68.448C56.9283 66.784 53.1523 64.352 49.9523 61.152ZM105.171 61.152L114.003 48.384C116.179 50.304 118.771 51.968 121.779 53.376C124.787 54.784 127.699 55.488 130.515 55.488C132.755 55.488 134.483 55.04 135.699 54.144C136.979 53.248 137.619 52.096 137.619 50.688C137.619 49.216 136.851 47.872 135.315 46.656C133.843 45.376 131.987 44.32 129.747 43.488C127.507 42.656 125.075 41.6 122.451 40.32C119.827 38.976 117.395 37.568 115.155 36.096C112.915 34.624 111.027 32.608 109.491 30.048C108.019 27.424 107.283 24.416 107.283 21.024C107.283 14.752 109.587 9.69601 114.195 5.85601C118.867 1.95201 124.851 0 132.147 0C140.659 0 147.827 2.59201 153.651 7.77601L146.547 21.504C144.563 19.776 142.195 18.336 139.443 17.184C136.691 16.032 134.003 15.456 131.379 15.456C128.947 15.456 127.123 15.904 125.907 16.8C124.691 17.696 124.083 18.88 124.083 20.352C124.083 21.824 124.819 23.168 126.291 24.384C127.827 25.6 129.715 26.624 131.955 27.456C134.195 28.224 136.627 29.248 139.251 30.528C141.875 31.744 144.307 33.088 146.547 34.56C148.787 35.968 150.643 37.984 152.115 40.608C153.651 43.168 154.419 46.144 154.419 49.536C154.419 55.616 152.243 60.704 147.891 64.8C143.603 68.896 137.651 70.944 130.035 70.944C125.427 70.944 120.915 70.112 116.499 68.448C112.147 66.784 108.371 64.352 105.171 61.152ZM165.094 69.792V1.15201H208.102V15.552H181.894V28.032H202.822V42.432H181.894V55.392H209.446V69.792H165.094ZM220.219 69.792V1.15201H237.211L256.219 33.216C256.987 34.56 257.851 36.224 258.811 38.208C259.771 40.128 260.539 41.728 261.115 43.008L261.979 44.928H262.171C261.659 40 261.403 36.096 261.403 33.216V1.15201H278.203V69.792H261.307L242.203 37.824C241.435 36.48 240.571 34.848 239.611 32.928C238.651 30.944 237.883 29.312 237.307 28.032L236.443 26.112H236.251C236.763 31.04 237.019 34.944 237.019 37.824V69.792H220.219ZM307.378 69.792V15.552H286.546V1.15201H345.01V15.552H324.178V69.792H307.378ZM353.344 69.792V1.15201H370.144V69.792H353.344ZM377.074 69.792L400.403 1.15201H418.067L441.395 69.792H424.115L419.891 55.392H398.483L394.355 69.792H377.074ZM402.419 41.952H415.955L412.115 28.608L409.331 16.8H409.139C408.115 21.792 407.187 25.728 406.355 28.608L402.419 41.952ZM448.313 69.792V1.15201H465.112V55.392H493.145V69.792H448.313ZM522.469 69.792V1.15201H547.717C554.757 1.15201 560.389 2.72001 564.613 5.85601C568.901 8.92801 571.045 13.344 571.045 19.104C571.045 22.048 570.341 24.864 568.933 27.552C567.525 30.176 565.573 32.224 563.077 33.696V33.888C566.725 34.976 569.413 36.992 571.141 39.936C572.933 42.816 573.829 45.952 573.829 49.344C573.829 56.32 571.365 61.472 566.437 64.8C561.509 68.128 555.269 69.792 547.717 69.792H522.469ZM539.269 27.744H547.909C549.893 27.744 551.397 27.136 552.421 25.92C553.445 24.704 553.957 23.2 553.957 21.408C553.957 19.68 553.413 18.272 552.325 17.184C551.301 16.096 549.733 15.552 547.621 15.552H539.269V27.744ZM539.269 55.392H549.349C551.653 55.392 553.445 54.72 554.725 53.376C556.005 51.968 556.645 50.24 556.645 48.192C556.645 46.144 556.037 44.48 554.821 43.2C553.605 41.856 551.813 41.184 549.445 41.184H539.269V55.392ZM584.625 69.792V1.15201H601.425V55.392H629.457V69.792H584.625ZM632.069 35.04C632.069 25.056 635.429 16.736 642.149 10.08C648.869 3.36001 657.477 0 667.973 0C678.469 0 687.077 3.36001 693.797 10.08C700.517 16.736 703.877 25.056 703.877 35.04C703.877 45.28 700.517 53.824 693.797 60.672C687.077 67.52 678.469 70.944 667.973 70.944C657.477 70.944 648.869 67.52 642.149 60.672C635.429 53.824 632.069 45.28 632.069 35.04ZM649.445 35.04C649.445 40.928 651.173 45.824 654.629 49.728C658.149 53.632 662.597 55.584 667.973 55.584C673.349 55.584 677.765 53.632 681.221 49.728C684.741 45.824 686.501 40.928 686.501 35.04C686.501 29.408 684.741 24.736 681.221 21.024C677.765 17.248 673.349 15.36 667.973 15.36C662.597 15.36 658.149 17.248 654.629 21.024C651.173 24.736 649.445 29.408 649.445 35.04ZM710.915 35.328C710.915 25.28 714.307 16.896 721.091 10.176C727.939 3.392 736.547 0 746.915 0C757.603 0 766.403 3.04001 773.315 9.12001L765.251 21.696C763.267 19.904 760.707 18.4 757.571 17.184C754.435 15.968 751.427 15.36 748.547 15.36C741.763 15.36 736.675 17.216 733.283 20.928C729.955 24.576 728.291 29.184 728.291 34.752C728.291 41.088 730.179 46.144 733.955 49.92C737.795 53.696 742.467 55.584 747.971 55.584C752.963 55.584 757.603 53.92 761.891 50.592V45.312H752.195V31.008H776.771V69.792H762.755V67.872L762.851 64.992H762.659C760.611 66.784 757.923 68.224 754.595 69.312C751.331 70.4 748.003 70.944 744.611 70.944C735.395 70.944 727.459 67.712 720.803 61.248C714.211 54.784 710.915 46.144 710.915 35.328ZM785.165 35.328C785.165 25.28 788.557 16.896 795.341 10.176C802.189 3.392 810.797 0 821.165 0C831.853 0 840.653 3.04001 847.565 9.12001L839.501 21.696C837.517 19.904 834.957 18.4 831.821 17.184C828.685 15.968 825.677 15.36 822.797 15.36C816.013 15.36 810.925 17.216 807.533 20.928C804.205 24.576 802.541 29.184 802.541 34.752C802.541 41.088 804.429 46.144 808.205 49.92C812.045 53.696 816.717 55.584 822.221 55.584C827.213 55.584 831.853 53.92 836.141 50.592V45.312H826.445V31.008H851.021V69.792H837.005V67.872L837.101 64.992H836.909C834.861 66.784 832.173 68.224 828.845 69.312C825.581 70.4 822.253 70.944 818.861 70.944C809.645 70.944 801.709 67.712 795.053 61.248C788.461 54.784 785.165 46.144 785.165 35.328ZM863.063 69.792V1.15201H906.071V15.552H879.862V28.032H900.791V42.432H879.862V55.392H907.415V69.792H863.063ZM918.188 69.792V1.15201H942.092C948.172 1.15201 952.62 1.69601 955.436 2.78401C959.404 4.32001 962.508 6.816 964.748 10.272C966.988 13.664 968.108 17.824 968.108 22.752C968.108 26.592 967.212 30.272 965.42 33.792C963.628 37.248 961.1 39.808 957.836 41.472V41.664C958.476 42.496 959.34 43.872 960.428 45.792L973.772 69.792H955.052L942.86 46.656H934.988V69.792H918.188ZM934.988 32.256H942.284C945.036 32.256 947.18 31.52 948.716 30.048C950.252 28.576 951.02 26.496 951.02 23.808C951.02 20.032 949.676 17.6 946.988 16.512C945.516 15.872 943.404 15.552 940.652 15.552H934.988V32.256Z" fill="#F6F6F6" fill-opacity="0.05"/>
</svg>
fill="#F6F6F6" fill-opacity="0.05"/

<svg width="136" height="136" viewBox="0 0 136 136" fill="none" xmlns="http://www.w3.org/2000/svg">
<path d="M68 3C32.1015 3 3 32.1015 3 68C3 103.899 32.1015 133 68 133C103.899 133 133 103.899 133 68C133 51.532 126.876 36.4943 116.781 25.0402" stroke="#FDC400" stroke-width="5"/>
</svg>

<svg width="136" height="136" viewBox="0 0 136 136" fill="none" xmlns="http://www.w3.org/2000/svg">
<path d="M133 68C133 103.899 103.899 133 68 133C32.1015 133 3 103.899 3 68C3 32.1015 32.1015 3 68 3" stroke="#FDC400" stroke-width="5"/>
</svg>

<svg width="57" height="35" viewBox="0 0 57 35" fill="none" xmlns="http://www.w3.org/2000/svg">
<path d="M57.0001 32C34.0369 32 13.8549 20.0924 2.29199 2.11499" stroke="#FDC400" stroke-width="5"/>
</svg>
