<svg width="1062" height="72" viewBox="0 0 1062 72" fill="none" xmlns="http://www.w3.org/2000/svg">
<path d="M0.203857 70.1655V1.52545H17.3263V28.9815H42.7654V1.52545H59.8878V70.1655H42.7654V43.2854H17.3263V70.1655H0.203857ZM70.7254 35.4135C70.7254 25.4295 74.1499 17.1095 80.9989 10.4535C87.8479 3.73345 96.6211 0.373441 107.319 0.373441C118.017 0.373441 126.79 3.73345 133.639 10.4535C140.488 17.1095 143.912 25.4295 143.912 35.4135C143.912 45.6535 140.488 54.1975 133.639 61.0455C126.79 67.8935 118.017 71.3175 107.319 71.3175C96.6211 71.3175 87.8479 67.8935 80.9989 61.0455C74.1499 54.1975 70.7254 45.6535 70.7254 35.4135ZM88.435 35.4135C88.435 41.3015 90.1961 46.1975 93.7185 50.1015C97.306 54.0055 101.839 55.9575 107.319 55.9575C112.798 55.9575 117.299 54.0055 120.821 50.1015C124.409 46.1975 126.203 41.3015 126.203 35.4135C126.203 29.7815 124.409 25.1095 120.821 21.3975C117.299 17.6215 112.798 15.7335 107.319 15.7335C101.839 15.7335 97.306 17.6215 93.7185 21.3975C90.1961 25.1095 88.435 29.7815 88.435 35.4135ZM164.806 70.1655L147.781 1.52545H165.784L174.59 44.4375C174.851 45.7174 175.047 46.9655 175.177 48.1814C175.373 49.3335 175.471 50.1975 175.471 50.7735V51.6375H175.666C175.731 49.6535 176.123 47.2534 176.84 44.4375L187.603 1.52545H201.399L211.868 44.4375C212.194 45.7174 212.455 46.9655 212.651 48.1814C212.846 49.3335 212.977 50.1975 213.042 50.7735V51.6375H213.238C213.238 49.6535 213.531 47.2534 214.118 44.4375L223.707 1.52545H241.416L223.707 70.1655H204.628L195.822 35.5095L194.452 27.4455H194.256C194.061 29.8775 193.604 32.5655 192.887 35.5095L184.081 70.1655H164.806ZM271.278 70.1655V1.52545H296.13C307.219 1.52545 315.992 4.56545 322.449 10.6455C328.972 16.6614 332.234 25.0135 332.234 35.7015C332.234 46.4534 328.972 54.9015 322.449 61.0455C315.992 67.1255 307.219 70.1655 296.13 70.1655H271.278ZM288.4 55.7654H295.445C301.446 55.7654 306.11 54.0375 309.436 50.5815C312.828 47.1255 314.524 42.1655 314.524 35.7015C314.524 29.3015 312.828 24.4055 309.436 21.0135C306.045 17.6215 301.381 15.9255 295.445 15.9255H288.4V55.7654ZM339.601 35.4135C339.601 25.4295 343.026 17.1095 349.875 10.4535C356.724 3.73345 365.497 0.373441 376.195 0.373441C386.892 0.373441 395.665 3.73345 402.514 10.4535C409.363 17.1095 412.788 25.4295 412.788 35.4135C412.788 45.6535 409.363 54.1975 402.514 61.0455C395.665 67.8935 386.892 71.3175 376.195 71.3175C365.497 71.3175 356.724 67.8935 349.875 61.0455C343.026 54.1975 339.601 45.6535 339.601 35.4135ZM357.311 35.4135C357.311 41.3015 359.072 46.1975 362.594 50.1015C366.182 54.0055 370.715 55.9575 376.195 55.9575C381.674 55.9575 386.175 54.0055 389.697 50.1015C393.284 46.1975 395.078 41.3015 395.078 35.4135C395.078 29.7815 393.284 25.1095 389.697 21.3975C386.175 17.6215 381.674 15.7335 376.195 15.7335C370.715 15.7335 366.182 17.6215 362.594 21.3975C359.072 25.1095 357.311 29.7815 357.311 35.4135ZM456.422 70.1655L439.398 1.52545H457.401L466.207 44.4375C466.468 45.7174 466.663 46.9655 466.794 48.1814C466.989 49.3335 467.087 50.1975 467.087 50.7735V51.6375H467.283C467.348 49.6535 467.74 47.2534 468.457 44.4375L479.22 1.52545H493.016L503.485 44.4375C503.811 45.7174 504.072 46.9655 504.268 48.1814C504.463 49.3335 504.594 50.1975 504.659 50.7735V51.6375H504.855C504.855 49.6535 505.148 47.2534 505.735 44.4375L515.324 1.52545H533.033L515.324 70.1655H496.244L487.439 35.5095L486.069 27.4455H485.873C485.677 29.8775 485.221 32.5655 484.503 35.5095L475.698 70.1655H456.422ZM541.205 70.1655V1.52545H585.039V15.9255H558.327V28.4055H579.657V42.8055H558.327V55.7654H586.408V70.1655H541.205ZM621.849 70.1655V1.52545H646.701C657.79 1.52545 666.563 4.56545 673.021 10.6455C679.543 16.6614 682.805 25.0135 682.805 35.7015C682.805 46.4534 679.543 54.9015 673.021 61.0455C666.563 67.1255 657.79 70.1655 646.701 70.1655H621.849ZM638.971 55.7654H646.016C652.017 55.7654 656.681 54.0375 660.007 50.5815C663.399 47.1255 665.095 42.1655 665.095 35.7015C665.095 29.3015 663.399 24.4055 660.007 21.0135C656.616 17.6215 651.952 15.9255 646.016 15.9255H638.971V55.7654ZM693.988 70.1655V1.52545H737.822V15.9255H711.111V28.4055H732.441V42.8055H711.111V55.7654H739.192V70.1655H693.988ZM750.171 70.1655V1.52545H767.294V55.7654H795.864V70.1655H750.171ZM804.157 70.1655V1.52545H821.279V70.1655H804.157ZM852.803 70.1655L828.049 1.52545H846.639L858.967 40.5975C859.359 41.8774 859.783 43.4455 860.239 45.3015C860.696 47.1575 861.055 48.6614 861.316 49.8134L861.609 51.6375H861.805C862.653 47.1575 863.533 43.4775 864.447 40.5975L876.97 1.52545H895.267L870.611 70.1655H852.803ZM902 70.1655V1.52545H945.833V15.9255H919.121V28.4055H940.452V42.8055H919.121V55.7654H947.203V70.1655H902ZM958.183 70.1655V1.52545H982.546C988.742 1.52545 993.276 2.06945 996.146 3.15745C1000.19 4.69345 1003.35 7.18945 1005.64 10.6455C1007.92 14.0375 1009.06 18.1975 1009.06 23.1255C1009.06 26.9655 1008.15 30.6455 1006.32 34.1655C1004.49 37.6215 1001.92 40.1814 998.592 41.8455V42.0375C999.244 42.8695 1000.12 44.2455 1001.23 46.1655L1014.83 70.1655H995.754L983.328 47.0294H975.305V70.1655H958.183ZM975.305 32.6295H982.741C985.546 32.6295 987.731 31.8935 989.297 30.4215C990.862 28.9495 991.645 26.8695 991.645 24.1815C991.645 20.4055 990.275 17.9734 987.536 16.8855C986.035 16.2455 983.883 15.9255 981.078 15.9255H975.305V32.6295ZM1028.46 48.9495V44.1495C1028.46 41.7815 1028.98 39.6055 1030.02 37.6215C1031.07 35.5735 1032.33 33.9095 1033.84 32.6295C1035.4 31.2855 1036.94 30.0375 1038.44 28.8855C1039.93 27.6695 1041.21 26.3895 1042.25 25.0455C1043.3 23.7015 1043.82 22.2935 1043.82 20.8215C1043.82 19.2215 1043.13 17.8775 1041.76 16.7895C1040.39 15.7015 1038.76 15.1575 1036.87 15.1575C1033.87 15.1575 1030.77 16.5335 1027.57 19.2855L1018.18 8.05345C1023.6 2.74145 1030.42 0.0854492 1038.63 0.0854492C1044.63 0.0854492 1049.91 1.78145 1054.48 5.17345C1059.12 8.50145 1061.43 13.0775 1061.43 18.9015C1061.43 21.7815 1060.84 24.4375 1059.67 26.8695C1058.56 29.2375 1057.16 31.1895 1055.46 32.7255C1053.83 34.1975 1052.2 35.6054 1050.56 36.9495C1048.93 38.2295 1047.54 39.6054 1046.36 41.0774C1045.25 42.4855 1044.69 43.9575 1044.69 45.4935V48.9495H1028.46ZM1028.85 70.1655V55.7654H1044.31V70.1655H1028.85Z" fill="#F6F6F6" fill-opacity="0.05"/>
</svg>
