<svg width="741" height="72" viewBox="0 0 741 72" fill="none" xmlns="http://www.w3.org/2000/svg">
<path d="M0.199951 70V1.36001H17V55.6H45.032V70H0.199951ZM47.6435 35.248C47.6435 25.264 51.0034 16.944 57.7234 10.288C64.4435 3.56801 73.0515 0.208008 83.5475 0.208008C94.0435 0.208008 102.652 3.56801 109.372 10.288C116.092 16.944 119.452 25.264 119.452 35.248C119.452 45.488 116.092 54.032 109.372 60.88C102.652 67.728 94.0435 71.152 83.5475 71.152C73.0515 71.152 64.4435 67.728 57.7234 60.88C51.0034 54.032 47.6435 45.488 47.6435 35.248ZM65.0195 35.248C65.0195 41.136 66.7475 46.032 70.2035 49.936C73.7234 53.84 78.1715 55.792 83.5475 55.792C88.9235 55.792 93.3395 53.84 96.7955 49.936C100.316 46.032 102.076 41.136 102.076 35.248C102.076 29.616 100.316 24.944 96.7955 21.232C93.3395 17.456 88.9235 15.568 83.5475 15.568C78.1715 15.568 73.7234 17.456 70.2035 21.232C66.7475 24.944 65.0195 29.616 65.0195 35.248ZM126.49 35.536C126.49 25.424 129.85 17.008 136.57 10.288C143.354 3.56801 151.994 0.208008 162.49 0.208008C167.29 0.208008 171.962 1.04001 176.506 2.70401C181.05 4.30401 184.954 6.704 188.218 9.90401L180.442 22.576C178.138 20.528 175.418 18.864 172.281 17.584C169.21 16.24 166.202 15.568 163.258 15.568C156.858 15.568 152.026 17.488 148.762 21.328C145.498 25.104 143.866 29.712 143.866 35.152C143.866 40.72 145.53 45.552 148.858 49.648C152.25 53.744 157.05 55.792 163.258 55.792C169.786 55.792 175.866 52.976 181.498 47.344L190.138 59.632C182.714 67.312 173.498 71.152 162.49 71.152C151.61 71.152 142.874 67.824 136.282 61.168C129.754 54.448 126.49 45.904 126.49 35.536ZM198.669 70V1.36001H215.469V27.856H222.381L236.589 1.36001H254.637L236.109 34.192V34.384L255.693 70H236.877L222.381 42.16H215.469V70H198.669ZM277.056 70L300.384 1.36001H318.048L341.376 70H324.096L319.872 55.6H298.464L294.336 70H277.056ZM302.4 42.16H315.936L312.096 28.816L309.312 17.008H309.12C308.096 22 307.168 25.936 306.336 28.816L302.4 42.16ZM348.294 70V1.36001H365.286L384.294 33.424C385.062 34.768 385.926 36.432 386.886 38.416C387.846 40.336 388.614 41.936 389.19 43.216L390.054 45.136H390.246C389.734 40.208 389.478 36.304 389.478 33.424V1.36001H406.278V70H389.382L370.278 38.032C369.51 36.688 368.646 35.056 367.686 33.136C366.726 31.152 365.958 29.52 365.382 28.24L364.518 26.32H364.326C364.838 31.248 365.094 35.152 365.094 38.032V70H348.294ZM420.669 70V1.36001H445.053C455.933 1.36001 464.541 4.40001 470.877 10.48C477.277 16.496 480.477 24.848 480.477 35.536C480.477 46.288 477.277 54.736 470.877 60.88C464.541 66.96 455.933 70 445.053 70H420.669ZM437.469 55.6H444.381C450.269 55.6 454.845 53.872 458.109 50.416C461.437 46.96 463.101 42 463.101 35.536C463.101 29.136 461.437 24.24 458.109 20.848C454.781 17.456 450.205 15.76 444.381 15.76H437.469V55.6ZM515.45 70V1.36001H540.698C547.738 1.36001 553.37 2.92801 557.594 6.06401C561.882 9.13601 564.026 13.552 564.026 19.312C564.026 22.256 563.322 25.072 561.914 27.76C560.506 30.384 558.554 32.432 556.058 33.904V34.096C559.706 35.184 562.394 37.2 564.122 40.144C565.914 43.024 566.81 46.16 566.81 49.552C566.81 56.528 564.346 61.68 559.418 65.008C554.49 68.336 548.25 70 540.698 70H515.45ZM532.25 27.952H540.89C542.874 27.952 544.378 27.344 545.402 26.128C546.426 24.912 546.938 23.408 546.938 21.616C546.938 19.888 546.394 18.48 545.306 17.392C544.282 16.304 542.714 15.76 540.602 15.76H532.25V27.952ZM532.25 55.6H542.33C544.634 55.6 546.426 54.928 547.706 53.584C548.986 52.176 549.626 50.448 549.626 48.4C549.626 46.352 549.018 44.688 547.802 43.408C546.586 42.064 544.794 41.392 542.426 41.392H532.25V55.6ZM569.462 70L592.79 1.36001H610.454L633.782 70H616.502L612.278 55.6H590.87L586.742 70H569.462ZM594.806 42.16H608.342L604.502 28.816L601.718 17.008H601.526C600.502 22 599.574 25.936 598.742 28.816L594.806 42.16ZM640.7 70V1.36001H657.5V55.6H685.532V70H640.7ZM686.181 70L709.509 1.36001H727.173L750.501 70H733.221L728.997 55.6H707.589L703.461 70H686.181ZM711.525 42.16H725.061L721.221 28.816L718.437 17.008H718.245C717.221 22 716.293 25.936 715.461 28.816L711.525 42.16ZM757.419 70V1.36001H774.411L793.419 33.424C794.187 34.768 795.051 36.432 796.011 38.416C796.971 40.336 797.739 41.936 798.315 43.216L799.179 45.136H799.371C798.859 40.208 798.603 36.304 798.603 33.424V1.36001H815.403V70H798.507L779.403 38.032C778.635 36.688 777.771 35.056 776.811 33.136C775.851 31.152 775.083 29.52 774.507 28.24L773.643 26.32H773.451C773.963 31.248 774.219 35.152 774.219 38.032V70H757.419ZM826.146 35.536C826.146 25.424 829.506 17.008 836.226 10.288C843.01 3.56801 851.65 0.208008 862.146 0.208008C866.946 0.208008 871.618 1.04001 876.162 2.70401C880.706 4.30401 884.61 6.704 887.874 9.90401L880.098 22.576C877.794 20.528 875.074 18.864 871.938 17.584C868.866 16.24 865.858 15.568 862.914 15.568C856.514 15.568 851.682 17.488 848.418 21.328C845.154 25.104 843.522 29.712 843.522 35.152C843.522 40.72 845.186 45.552 848.514 49.648C851.906 53.744 856.706 55.792 862.914 55.792C869.442 55.792 875.522 52.976 881.154 47.344L889.794 59.632C882.37 67.312 873.154 71.152 862.146 71.152C851.266 71.152 842.53 67.824 835.938 61.168C829.41 54.448 826.146 45.904 826.146 35.536ZM898.325 70V1.36001H941.333V15.76H915.125V28.24H936.053V42.64H915.125V55.6H942.677V70H898.325Z" fill="#F6F6F6" fill-opacity="0.05"/>
</svg>
