<svg width="754" height="72" viewBox="0 0 754 72" fill="none" xmlns="http://www.w3.org/2000/svg">
<path d="M0.495972 61.36L9.32797 48.592C11.504 50.512 14.096 52.176 17.104 53.584C20.112 54.992 23.024 55.696 25.84 55.696C28.08 55.696 29.808 55.248 31.024 54.352C32.304 53.456 32.944 52.304 32.944 50.896C32.944 49.424 32.176 48.08 30.64 46.864C29.168 45.584 27.312 44.528 25.072 43.696C22.832 42.864 20.4 41.808 17.776 40.528C15.152 39.184 12.72 37.776 10.48 36.304C8.23997 34.832 6.35197 32.816 4.81597 30.256C3.34397 27.632 2.60797 24.624 2.60797 21.232C2.60797 14.96 4.91197 9.90401 9.51997 6.06401C14.192 2.16001 20.176 0.208008 27.472 0.208008C35.984 0.208008 43.152 2.80001 48.976 7.98401L41.872 21.712C39.888 19.984 37.52 18.544 34.768 17.392C32.016 16.24 29.328 15.664 26.704 15.664C24.272 15.664 22.448 16.112 21.232 17.008C20.016 17.904 19.408 19.088 19.408 20.56C19.408 22.032 20.144 23.376 21.616 24.592C23.152 25.808 25.04 26.832 27.28 27.664C29.52 28.432 31.952 29.456 34.576 30.736C37.2 31.952 39.632 33.296 41.872 34.768C44.112 36.176 45.968 38.192 47.44 40.816C48.976 43.376 49.744 46.352 49.744 49.744C49.744 55.824 47.568 60.912 43.216 65.008C38.928 69.104 32.976 71.152 25.36 71.152C20.752 71.152 16.24 70.32 11.824 68.656C7.47197 66.992 3.69597 64.56 0.495972 61.36ZM60.4188 70V1.36001H77.2188V28.816H102.179V1.36001H118.979V70H102.179V43.12H77.2188V70H60.4188ZM125.868 70L149.196 1.36001H166.86L190.188 70H172.908L168.684 55.6H147.276L143.148 70H125.868ZM151.212 42.16H164.748L160.908 28.816L158.124 17.008H157.932C156.908 22 155.98 25.936 155.148 28.816L151.212 42.16ZM206.547 70V15.76H185.715V1.36001H244.179V15.76H223.347V70H206.547ZM267.297 70V15.76H246.465V1.36001H304.929V15.76H284.097V70H267.297ZM313.263 70V1.36001H356.271V15.76H330.062V28.24H350.991V42.64H330.062V55.6H357.615V70H313.263ZM368.388 70V1.36001H392.292C398.372 1.36001 402.82 1.90401 405.636 2.99201C409.604 4.52801 412.708 7.02401 414.948 10.48C417.188 13.872 418.308 18.032 418.308 22.96C418.308 26.8 417.412 30.48 415.62 34C413.828 37.456 411.3 40.016 408.036 41.68V41.872C408.676 42.704 409.54 44.08 410.628 46L423.972 70H405.252L393.06 46.864H385.188V70H368.388ZM385.188 32.464H392.484C395.236 32.464 397.38 31.728 398.916 30.256C400.452 28.784 401.22 26.704 401.22 24.016C401.22 20.24 399.876 17.808 397.188 16.72C395.716 16.08 393.604 15.76 390.852 15.76H385.188V32.464ZM431.575 70V1.36001H460.087C466.743 1.36001 472.119 3.56801 476.215 7.98401C480.375 12.4 482.455 18.064 482.455 24.976C482.455 31.952 480.375 37.68 476.215 42.16C472.119 46.576 466.743 48.784 460.087 48.784H448.375V70H431.575ZM448.375 34.384H456.631C459.447 34.384 461.591 33.52 463.063 31.792C464.599 30.064 465.367 27.792 465.367 24.976C465.367 22.16 464.631 19.92 463.159 18.256C461.687 16.592 459.607 15.76 456.919 15.76H448.375V34.384ZM491.95 70V1.36001H515.854C521.934 1.36001 526.382 1.90401 529.198 2.99201C533.166 4.52801 536.27 7.02401 538.51 10.48C540.75 13.872 541.87 18.032 541.87 22.96C541.87 26.8 540.974 30.48 539.182 34C537.39 37.456 534.862 40.016 531.598 41.68V41.872C532.238 42.704 533.102 44.08 534.19 46L547.534 70H528.814L516.622 46.864H508.75V70H491.95ZM508.75 32.464H516.046C518.798 32.464 520.942 31.728 522.478 30.256C524.014 28.784 524.782 26.704 524.782 24.016C524.782 20.24 523.438 17.808 520.75 16.72C519.278 16.08 517.166 15.76 514.414 15.76H508.75V32.464ZM550.644 35.248C550.644 25.264 554.004 16.944 560.724 10.288C567.444 3.56801 576.052 0.208008 586.548 0.208008C597.044 0.208008 605.652 3.56801 612.372 10.288C619.092 16.944 622.452 25.264 622.452 35.248C622.452 45.488 619.092 54.032 612.372 60.88C605.652 67.728 597.044 71.152 586.548 71.152C576.052 71.152 567.444 67.728 560.724 60.88C554.004 54.032 550.644 45.488 550.644 35.248ZM568.02 35.248C568.02 41.136 569.748 46.032 573.204 49.936C576.724 53.84 581.172 55.792 586.548 55.792C591.924 55.792 596.34 53.84 599.796 49.936C603.316 46.032 605.076 41.136 605.076 35.248C605.076 29.616 603.316 24.944 599.796 21.232C596.34 17.456 591.924 15.568 586.548 15.568C581.172 15.568 576.724 17.456 573.204 21.232C569.748 24.944 568.02 29.616 568.02 35.248ZM629.394 35.248C629.394 25.264 632.754 16.944 639.474 10.288C646.194 3.56801 654.802 0.208008 665.298 0.208008C675.794 0.208008 684.402 3.56801 691.122 10.288C697.842 16.944 701.202 25.264 701.202 35.248C701.202 45.488 697.842 54.032 691.122 60.88C684.402 67.728 675.794 71.152 665.298 71.152C654.802 71.152 646.194 67.728 639.474 60.88C632.754 54.032 629.394 45.488 629.394 35.248ZM646.77 35.248C646.77 41.136 648.498 46.032 651.954 49.936C655.474 53.84 659.922 55.792 665.298 55.792C670.674 55.792 675.09 53.84 678.546 49.936C682.066 46.032 683.826 41.136 683.826 35.248C683.826 29.616 682.066 24.944 678.546 21.232C675.09 17.456 670.674 15.568 665.298 15.568C659.922 15.568 655.474 17.456 651.954 21.232C648.498 24.944 646.77 29.616 646.77 35.248ZM711.888 70V1.36001H753.936V15.76H728.688V30.16H749.616V44.56H728.688V70H711.888Z" fill="#212629"/>
</svg>
